# xmcd
#
# Track frame offsets:
#	150
#	17354
#	30080
#	49190
#	71208
#	84423
#	96755
#	112555
#	132683
#	160415
#	180488
#	201453
#	231371
#
# Disc length: 3211 seconds
#
# Revision: 1
# Processed by: cddbd v1.5PL3 Copyright (c) Steve Scherf et al.
# Submitted via: dBpowerAMP V4.0
#
DISCID=a40c890d
DTITLE=Vida Reluz - Deus é Capaz
DYEAR=1900
DGENRE=blues
TTITLE0=Tesouro Sagrado
TTITLE1=Vou me Entregar a Deus
TTITLE2=Vem Sobre Nós
TTITLE3=Deus é Capaz
TTITLE4=Reina Soberano
TTITLE5=Visão
TTITLE6=Continuar
TTITLE7=Te Deixas Encontrar
TTITLE8=Seiva da Minha Vida
TTITLE9=Filho Muito Amado
TTITLE10=O Seu Reino Não Terá Fim
TTITLE11=Senhor e Rei
TTITLE12=DATA
EXTD=
EXTT0=
EXTT1=
EXTT2=
EXTT3=
EXTT4=
EXTT5=
EXTT6=
EXTT7=
EXTT8=
EXTT9=
EXTT10=
EXTT11=
EXTT12=
PLAYORDER=
